<?xml version="1.0" encoding="UTF-8"?>
<!DOCTYPE svg PUBLIC "-//W3C//DTD SVG 1.0//EN" "http://www.w3.org/TR/2001/REC-SVG-20010904/DTD/svg10.dtd">
<!-- Creator: CorelDRAW 2020 (64-Bit) -->
<svg xmlns="http://www.w3.org/2000/svg" xml:space="preserve" width="148mm" height="148mm" version="1.0" style="shape-rendering:geometricPrecision; text-rendering:geometricPrecision; image-rendering:optimizeQuality; fill-rule:evenodd; clip-rule:evenodd"
viewBox="0 0 14800 14800"
 xmlns:xlink="http://www.w3.org/1999/xlink"
 xmlns:xodm="http://www.corel.com/coreldraw/odm/2003">
 <defs>
  <style type="text/css">
   <![CDATA[
    .fil0 {fill:black}
    .fil1 {fill:#FDFDFD}
   ]]>
  </style>
 </defs>
 <g id="Livello_x0020_1">
  <metadata id="CorelCorpID_0Corel-Layer"/>
  <g id="_2810621766400">
   <path class="fil0" d="M9335.92 4098.22c-105.76,43.39 -220.07,93.61 -326.1,143.61 -107.26,50.57 -214.22,124.09 -209.87,274.39 5.19,179.57 107.76,221.14 271.4,162.2 330.78,-119.13 379.95,-426.7 711.14,399.95 130.26,325.15 436.83,1134.19 456.52,1461.84 15.42,256.5 -48.41,620.74 -118.49,847.58 -156.08,505.19 -542.41,1134.03 -833.57,1555.28 -82.28,119.05 -104.87,161.77 -279.13,202.27 -264.89,61.55 -613.09,35.78 -891.01,23.04 -298.15,-13.67 -622.1,3.18 -910.42,-46.52 -271.86,-46.86 -412.12,-196.7 -512.97,-451.23 -84.55,-213.37 -135.55,-585.01 -67.44,-825.12 34.45,-121.44 97.29,-239.34 157.03,-324.73 118.45,-169.27 303.68,-356.54 462.08,-491.19 124.16,-105.55 240.31,-236.74 343.82,-373.91 75.22,-99.69 142.85,-217.37 84.01,-345.86 -30.3,-66.16 -59.05,-88.65 -98.88,-144.12 9.72,-21.21 139.37,-169.86 203.24,-275.01 62.07,-102.17 118.68,-230.55 111.13,-377.7 -16.24,-316.68 -325.87,-342.39 -628.87,-341.12 -898.51,3.75 -1914.61,46.37 -2815.98,116.99 -289.7,22.7 -612.25,35.1 -892.72,82.05 -625.89,104.76 -673.87,249.24 -696.63,773.6 -13.55,312.06 6.18,226.35 22.27,448.4 -104.93,66.45 -766.34,580.6 -641.83,762.32 55.63,52.31 334.01,-65.71 411.54,-93.28 888.31,-315.83 1800.47,-553.91 2675.23,-47.21 61.59,35.68 111.91,70.02 167.18,111.16 612.87,456.28 702.06,1040.71 585.08,1820.13 -45.55,303.42 -129.79,605.14 -237.96,866.19 -109.75,264.84 -273.57,471.54 -625.48,478.35 -23.28,157.73 -85.64,280.45 -127.3,420.5 136.1,78.75 511.81,2.54 637.94,-60.75 238.21,-119.52 214.67,-212.76 359.94,-205.73 59.1,2.86 119.69,8.14 179.35,13.92 584,56.55 2368.02,46.69 2946.27,-20.88 160.59,-18.76 164,-33.65 255.29,-116.63 100.16,-91.06 477.26,-539.13 514.92,-629.24 218.26,35.47 251.69,86.98 508.24,46.05 163.8,-26.14 312.43,-73.96 456.36,-133.4 593.52,-245.12 957.57,-627.6 1563.02,-814.66 402.87,-124.46 704.99,31.43 1103.74,-43.34 177.51,-33.28 299.66,-94.88 288.21,-294.34 -26.31,-458.13 -400.89,-778.5 -797.3,-987.87 -277.49,-146.56 -612.26,-226.83 -976.22,-192.22 -176.78,16.81 -324.12,54.88 -476.38,113.57 -74.94,28.89 -142.06,53.99 -216.01,83.55 -88.31,35.3 -169.82,84.1 -180.33,-51.43 110.45,-40.37 307.84,-149.34 376.88,-244.6 98.54,-135.96 80.04,-348.16 -6.84,-479.62 -103.83,-157.1 -370.23,-257.75 -489.48,-442.56 -157.39,-243.91 -389.67,-786.38 -512.78,-1061.78 -52.4,-117.2 -354.27,-812.12 -353.96,-888.73 402.78,-35.64 627.38,-50.95 775.47,-489.09 89.65,-265.22 172.02,-812.03 -210.45,-921.77 -179.92,-51.62 -399.88,-19.66 -521.19,72.29 -78.06,59.16 -194.28,273.28 -268.26,363.38 -64.75,78.85 -64.12,80.77 -187.34,123.46 -348.93,120.86 -509.18,103.5 -516.11,449.57z"/>
   <path class="fil0" d="M3966.26 7085.07c-725.51,51.28 -1483.99,440.19 -1997.9,870.14l-279.45 245.31c-48.27,47.67 -81.02,93.99 -127.64,140.26 -151.71,150.59 -321.8,428.48 -412.56,626.44 -121.12,264.18 -113.7,491.96 -253.02,797.71 -54.92,120.53 146.74,194.11 251.36,231.37 473.03,168.48 1243.92,251.47 1782.02,307.81 544.3,57 1905.58,121.3 2443.55,-37.06 160.64,-47.28 199.93,-118.65 257.93,-267.24 97.1,-248.73 168.76,-547.15 225.58,-824.45 92.82,-452.96 158.28,-873.42 -94.18,-1297.75 -346.46,-582.32 -1103.14,-841.49 -1795.69,-792.54z"/>
   <path class="fil0" d="M10514.19 10082.63c0.02,272.69 20.56,385.27 98.66,624.31 56.31,172.33 149.91,360.94 243.57,484.87 194.57,257.46 455.83,466.3 907.96,536.44 805.21,124.91 1589.15,-250.19 1800.76,-1056.21 130.34,-496.46 51,-1049.86 -260.75,-1424.73 -47.24,-56.8 -112.16,-144.04 -198.9,-166 -211.18,-53.49 -452.83,-1.33 -635.28,66.82 -360.95,134.83 -643.74,336.06 -930.61,515.79 -251.64,157.66 -667.43,389.09 -1025.41,418.71z"/>
   <path class="fil0" d="M5040.49 10488.67l-790.99 12.96c-261.56,-2.38 -518.61,-12.1 -779.9,-24.34 -251.15,-11.77 -501.09,-28.51 -751.69,-46.23 -246.91,-17.45 -507.1,-52.07 -750.05,-60.41 -0.97,2.78 -1.85,4.18 -2.04,8.59l-3.39 25.98c-1.28,127.32 97.34,412.84 145.3,515.8 236.4,507.44 753.14,811.36 1327.66,829.05 625.47,19.27 1120.23,-262.61 1403.47,-742.37 74,-125.34 174.66,-353.36 201.63,-519.03z"/>
   <path class="fil0" d="M1862.72 7340.3c-150.51,17.92 -242.62,64.63 -340.69,136.18 -420.02,306.44 -433.83,980.85 -120.16,801.2 186.66,-106.91 1103.35,-1013.86 460.85,-937.38z"/>
   <path class="fil1" d="M3201.2 9354.43c-82.27,21.76 -103,118.97 -38.45,169.33 50.63,39.51 180.74,22.18 251.22,22.18 188,0 1621.14,9.59 1674.45,-3.54 75.82,-18.67 100.67,-122.49 36.31,-170.94 -54.95,-41.36 -717.47,-21.08 -810.96,-21.08 -133.4,0 -1065.61,-8.36 -1112.57,4.05z"/>
   <path class="fil1" d="M3192.3 8574.53c-77.14,32.42 -92.68,133.82 -24.41,172.25 52.99,29.83 735.32,15.71 824.52,15.71 135.48,0 1058.93,11.12 1109.25,-8.8 74.32,-29.44 74.95,-141.94 11.94,-174.65 -52.73,-27.39 -732.84,-12.69 -821.26,-12.69 -134.57,0 -1054.26,-11.05 -1100.04,8.18z"/>
   <path class="fil1" d="M5042.18 8174.48l-1778.18 0c-188.71,0 -140.4,135.27 -108.12,166.8 50.38,49.2 218.81,28.63 300.94,28.63 167.2,0 1603.07,15 1655.75,-12.43 80.62,-41.98 69.62,-183 -70.39,-183z"/>
   <path class="fil1" d="M3285.43 9153.77l1756.75 0c160.09,0 177.3,-195.84 -21.43,-195.84l-1767.46 0c-78.21,0 -135.82,25.85 -126.61,108.79 9.13,82.24 74.96,87.05 158.75,87.05z"/>
  </g>
 </g>
</svg>
